# xmcd CD database file
#
# Track frame offsets:
#	150
#	10882
#	22575
#	33995
#	46630
#	58162
#	72662
#	83815
#	94410
#	106217
#
# Disc length: 1558 seconds
#
# Revision: 0
# Processed by: cddbd v1.4PL0 Copyright (c) Steve Scherf et al.
# Submitted via: CDex 1.40Release
#
DISCID=7506140a
DTITLE=George Jones - The Best Of Sacred Music
DYEAR=1900
DGENRE=Country
TTITLE0=Cup Of Loneliness
TTITLE1=Small Time Laboring Man
TTITLE2=Wandering Soul
TTITLE3=Taggin' Along
TTITLE4=Bringin' It Home
TTITLE5=Family Bible
TTITLE6=Old Brush Arbors
TTITLE7=Won't It Be Wonderful There
TTITLE8=I'll Fly Away
TTITLE9=Where We Never Grow Old
EXTD=ID3G: 2
EXTT0=
EXTT1=
EXTT2=
EXTT3=
EXTT4=
EXTT5=
EXTT6=
EXTT7=
EXTT8=
EXTT9=
PLAYORDER=
